<?xml version="1.0" standalone="no"?>
<!DOCTYPE svg PUBLIC "-//W3C//DTD SVG 20010904//EN"
 "http://www.w3.org/TR/2001/REC-SVG-20010904/DTD/svg10.dtd">
<svg version="1.0" xmlns="http://www.w3.org/2000/svg"
 width="800.000000pt" height="800.000000pt" viewBox="0 0 800.000000 800.000000"
 preserveAspectRatio="xMidYMid meet">
<metadata>
Created by potrace 1.11, written by Peter Selinger 2001-2013
</metadata>
<g transform="translate(0.000000,800.000000) scale(0.100000,-0.100000)"
fill="#000000" stroke="none">
<path d="M2770 6549 c-488 -53 -1148 -268 -1485 -484 -140 -89 -223 -212 -241
-355 -3 -25 -7 -56 -9 -69 -16 -96 -20 -248 -16 -686 6 -867 4 -1422 -4 -1665
-18 -471 -8 -1058 20 -1225 2 -16 7 -48 11 -70 3 -22 12 -71 21 -110 8 -38 17
-80 19 -93 20 -100 122 -305 188 -379 152 -168 406 -172 553 -9 52 59 139 231
177 355 30 94 82 344 91 435 3 33 8 73 10 90 7 52 18 219 29 444 2 35 8 67 12
71 17 14 428 181 446 181 7 0 78 -146 78 -161 0 -5 4 -17 9 -27 20 -40 31 -70
133 -357 53 -151 102 -280 129 -340 4 -11 18 -45 30 -75 68 -179 232 -465 321
-561 137 -149 330 -189 513 -105 89 40 150 119 199 255 30 85 38 134 39 251 2
159 -19 305 -69 490 -28 105 -80 274 -94 305 -5 11 -12 31 -15 45 -15 55 -142
343 -210 475 -67 129 -161 293 -206 356 l-19 26 73 64 c235 205 440 467 551
704 34 73 92 246 100 299 4 21 8 41 10 45 4 7 15 79 25 171 9 78 7 312 -3 395
-14 109 -33 219 -47 262 -6 17 -12 44 -15 59 -18 102 -131 341 -220 469 -65
94 -211 238 -305 302 -205 139 -397 204 -649 219 -52 3 -99 7 -105 8 -5 1 -39
-1 -75 -5z m-21 -1294 c96 -16 163 -66 199 -148 53 -120 44 -314 -21 -447 -20
-42 -79 -131 -102 -156 -5 -6 -28 -31 -50 -55 -91 -98 -221 -189 -370 -260
-115 -54 -236 -101 -243 -95 -2 3 -5 157 -7 343 -2 186 -6 415 -10 509 l-7
170 79 37 c99 46 243 94 308 102 28 4 51 8 52 9 6 5 131 -2 172 -9z"/>
<path d="M6008 6505 c-2 -1 -39 -5 -83 -9 -44 -3 -91 -8 -105 -11 -14 -3 -41
-8 -60 -11 -164 -29 -433 -107 -600 -174 -105 -42 -227 -96 -250 -110 -8 -5
-29 -16 -47 -24 -54 -25 -237 -134 -261 -156 -12 -11 -29 -38 -38 -58 -17 -42
-49 -175 -58 -242 -29 -225 -43 -446 -51 -825 -3 -121 -8 -299 -11 -395 -4
-96 -7 -452 -7 -790 0 -530 3 -717 18 -1055 3 -70 15 -267 20 -310 1 -16 6
-68 10 -115 4 -47 9 -94 11 -105 2 -11 6 -45 9 -75 10 -106 53 -291 83 -354
20 -43 40 -69 59 -79 37 -20 173 -65 215 -72 18 -3 40 -8 49 -11 69 -21 305
-40 474 -38 183 1 226 4 395 30 286 44 605 153 788 270 29 19 55 34 58 34 3 0
44 28 91 61 82 60 235 203 280 264 135 179 177 257 228 415 41 132 54 235 50
415 -3 156 -7 188 -26 270 -5 22 -12 50 -15 63 -2 13 -15 51 -28 85 -114 303
-318 494 -618 581 l-78 22 62 44 c236 166 458 422 583 670 43 85 91 200 101
240 2 8 10 40 18 70 19 67 33 144 42 225 10 87 11 284 3 325 -4 19 -10 53 -13
75 -8 60 -44 172 -78 240 -197 392 -582 607 -1113 619 -58 2 -106 2 -107 1z
m111 -1226 c86 -38 121 -99 115 -204 -4 -87 -27 -164 -78 -266 -41 -81 -109
-191 -142 -229 -139 -161 -279 -257 -401 -274 -61 -8 -67 7 -67 184 -1 232 13
412 44 567 22 109 32 122 155 183 135 68 276 83 374 39z m-51 -1900 c103 -34
147 -99 139 -202 -3 -34 -7 -69 -9 -77 -17 -64 -105 -198 -165 -250 -134 -120
-329 -220 -427 -220 -33 0 -36 3 -47 43 -22 76 -14 441 11 529 13 45 61 87
148 130 124 61 254 79 350 47z"/>
</g>
</svg>
